<svg width="25" height="28" viewBox="0 0 25 28" fill="none" xmlns="http://www.w3.org/2000/svg">
<path d="M10.9771 1.33537C11.3462 1.11542 11.7615 1 12.1837 1C12.6059 1 13.0211 1.11542 13.3903 1.33537L22.0887 6.51937C22.4763 6.75035 22.7993 7.08839 23.0241 7.49844C23.249 7.90849 23.3675 8.37562 23.3673 8.85137V19.046C23.3672 19.5216 23.2486 19.9884 23.0238 20.3982C22.799 20.808 22.4761 21.1458 22.0887 21.3767L13.3903 26.5634C13.0211 26.7833 12.6059 26.8987 12.1837 26.8987C11.7615 26.8987 11.3462 26.7833 10.9771 26.5634L2.27867 21.3767C1.89141 21.1459 1.56867 20.8083 1.34385 20.3988C1.11904 19.9892 1.00033 19.5227 1 19.0474V8.85137C0.999883 8.37562 1.11839 7.90849 1.34322 7.49844C1.56806 7.08839 1.89104 6.75035 2.27867 6.51937L10.9771 1.33537V1.33537Z" stroke="#5150FF" stroke-width="2"/>
<path d="M5.53027 18.4979L5.53028 18.4979L5.52517 18.4963C5.51131 18.492 5.50411 18.485 5.50146 18.4813C5.50063 18.4802 5.50022 18.4794 5.50004 18.4789L5.50065 18.4669V18.4541C5.50065 18.4595 5.50131 18.4531 5.50308 18.4356C5.50701 18.3968 5.51644 18.3039 5.53644 18.1659L6.75204 17.1662C8.04165 16.1056 10.3656 14.7844 14.0295 14.7844H14.0541C14.0741 14.7844 14.0886 14.7922 14.0956 14.7988C14.0988 14.8019 14.0999 14.8042 14.1002 14.8049C14.1002 14.8049 14.1002 14.8049 14.1003 14.805V16.7306V17.9108L14.9481 17.0898L19.0446 13.1229L19.4151 12.7641L19.0451 12.4049L14.9568 8.43542L14.1085 7.61178V8.79415V10.7201C14.1084 10.7201 14.1084 10.7201 14.1084 10.7201C14.1082 10.7207 14.1071 10.7229 14.1042 10.7258C14.0978 10.7321 14.0841 10.74 14.0647 10.7406L14.0639 10.7406C11.3782 10.8343 9.5152 11.7376 8.23621 12.9242C6.96638 14.1022 6.30428 15.5292 5.95756 16.6297L5.61362 17.7215C5.63698 17.6049 5.66504 17.4766 5.69866 17.3383C5.86764 16.6434 6.17151 15.721 6.70937 14.7867C7.77445 12.9366 9.7663 11.0151 13.5532 10.7329L14.016 10.6984V10.2343V7.52057C14.0162 7.52017 14.0166 7.51941 14.0174 7.5183C14.0196 7.51515 14.0254 7.50908 14.0369 7.50461C14.0486 7.50009 14.0626 7.49866 14.0763 7.50137C14.09 7.50406 14.0992 7.50997 14.104 7.5147L14.1043 7.51495L19.4953 12.7556L19.4955 12.7558C19.498 12.7582 19.4992 12.7601 19.4997 12.7611C19.4992 12.7621 19.498 12.7639 19.4955 12.7663L19.4953 12.7665L14.1043 18.0072L14.104 18.0074C14.0992 18.0122 14.09 18.0181 14.0763 18.0208C14.0626 18.0235 14.0486 18.022 14.0369 18.0175C14.0254 18.0131 14.0196 18.007 14.0174 18.0038C14.0166 18.0027 14.0162 18.002 14.016 18.0016V15.3398V14.8214L13.4979 14.8401C8.19247 15.0324 5.84492 18.1043 5.59261 18.4816L5.59212 18.4813C5.5905 18.4837 5.58644 18.4884 5.57828 18.4927C5.57001 18.497 5.55914 18.5 5.54693 18.5L5.54686 19L5.54437 18.5C5.53923 18.5 5.53441 18.4992 5.53027 18.4979Z" fill="white" stroke="#5150FF"/>
</svg>
