<svg width="1360" height="768" viewBox="0 0 1360 768" fill="none" xmlns="http://www.w3.org/2000/svg">
<path d="M135.819 483.315C139.733 481.141 144.138 480 148.616 480C153.094 480 157.498 481.141 161.413 483.315L253.67 534.557C257.781 536.84 261.207 540.182 263.591 544.235C265.976 548.288 267.233 552.905 267.232 557.608V658.379C267.231 663.079 265.973 667.694 263.588 671.745C261.204 675.795 257.779 679.135 253.67 681.417L161.413 732.685C157.498 734.859 153.094 736 148.616 736C144.138 736 139.733 734.859 135.819 732.685L43.5617 681.417C39.4544 679.136 36.0314 675.798 33.647 671.75C31.2626 667.702 30.0035 663.09 30 658.392V557.608C29.9988 552.905 31.2556 548.288 33.6403 544.235C36.0249 540.182 39.4505 536.84 43.5617 534.557L135.819 483.315Z" fill="#00B8D9"/>
<path d="M217.682 291.243C219.15 290.428 220.802 290 222.481 290C224.16 290 225.812 290.428 227.28 291.243L261.876 310.459C263.418 311.315 264.703 312.568 265.597 314.088C266.491 315.608 266.962 317.34 266.962 319.103V356.892C266.961 358.655 266.49 360.385 265.596 361.904C264.701 363.423 263.417 364.675 261.876 365.531L227.28 384.757C225.812 385.572 224.16 386 222.481 386C220.802 386 219.15 385.572 217.682 384.757L183.086 365.531C181.545 364.676 180.262 363.424 179.368 361.906C178.473 360.388 178.001 358.659 178 356.897V319.103C178 317.34 178.471 315.608 179.365 314.088C180.259 312.568 181.544 311.315 183.086 310.459L217.682 291.243Z" fill="#510FAB"/>
<path d="M103.534 133.518C104.146 133.178 104.834 133 105.534 133C106.233 133 106.922 133.178 107.533 133.518L121.948 141.525C122.591 141.881 123.126 142.403 123.499 143.037C123.871 143.67 124.068 144.391 124.067 145.126V160.872C124.067 161.606 123.871 162.327 123.498 162.96C123.126 163.593 122.59 164.115 121.948 164.471L107.533 172.482C106.922 172.822 106.233 173 105.534 173C104.834 173 104.146 172.822 103.534 172.482L89.119 164.471C88.4773 164.115 87.9424 163.593 87.5698 162.961C87.1973 162.328 87.0005 161.608 87 160.874V145.126C86.9998 144.391 87.1962 143.67 87.5688 143.037C87.9414 142.403 88.4766 141.881 89.119 141.525L103.534 133.518Z" fill="#37B47E"/>
<path d="M1077.91 56.6575C1079.87 55.5704 1082.07 55 1084.31 55C1086.55 55 1088.75 55.5704 1090.71 56.6575L1136.83 82.2785C1138.89 83.4201 1140.6 85.0908 1141.8 87.1174C1142.99 89.144 1143.62 91.4527 1143.62 93.804V144.189C1143.62 146.54 1142.99 148.847 1141.79 150.872C1140.6 152.898 1138.89 154.567 1136.83 155.708L1090.71 181.343C1088.75 182.43 1086.55 183 1084.31 183C1082.07 183 1079.87 182.43 1077.91 181.343L1031.78 155.708C1029.73 154.568 1028.02 152.899 1026.82 150.875C1025.63 148.851 1025 146.545 1025 144.196V93.804C1025 91.4527 1025.63 89.144 1026.82 87.1174C1028.01 85.0908 1029.73 83.4201 1031.78 82.2785L1077.91 56.6575Z" fill="#3C4758"/>
<path d="M1092.92 384.311C1093.29 384.107 1093.7 384 1094.12 384C1094.54 384 1094.95 384.107 1095.32 384.311L1103.97 389.115C1104.35 389.329 1104.68 389.642 1104.9 390.022C1105.12 390.402 1105.24 390.835 1105.24 391.276V400.723C1105.24 401.164 1105.12 401.596 1104.9 401.976C1104.68 402.356 1104.35 402.669 1103.97 402.883L1095.32 407.689C1094.95 407.893 1094.54 408 1094.12 408C1093.7 408 1093.29 407.893 1092.92 407.689L1084.27 402.883C1083.89 402.669 1083.57 402.356 1083.34 401.977C1083.12 401.597 1083 401.165 1083 400.724V391.276C1083 390.835 1083.12 390.402 1083.34 390.022C1083.56 389.642 1083.89 389.329 1084.27 389.115L1092.92 384.311Z" fill="#FFAC00"/>
<path d="M1288.45 417.829C1289.43 417.285 1290.53 417 1291.65 417C1292.77 417 1293.87 417.285 1294.85 417.829L1317.92 430.639C1318.95 431.21 1319.8 432.045 1320.4 433.059C1320.99 434.072 1321.31 435.226 1321.31 436.402V461.595C1321.31 462.77 1320.99 463.923 1320.4 464.936C1319.8 465.949 1318.94 466.784 1317.92 467.354L1294.85 480.171C1293.87 480.715 1292.77 481 1291.65 481C1290.53 481 1289.43 480.715 1288.45 480.171L1265.39 467.354C1264.36 466.784 1263.51 465.95 1262.91 464.938C1262.32 463.926 1262 462.773 1262 461.598V436.402C1262 435.226 1262.31 434.072 1262.91 433.059C1263.51 432.045 1264.36 431.21 1265.39 430.639L1288.45 417.829Z" fill="#2684FF"/>
</svg>
