<svg width="1360" height="768" viewBox="0 0 1360 768" fill="none" xmlns="http://www.w3.org/2000/svg">
<path d="M1277.53 364.518C1278.15 364.178 1278.83 364 1279.53 364C1280.23 364 1280.92 364.178 1281.53 364.518L1295.95 372.525C1296.59 372.881 1297.13 373.403 1297.5 374.037C1297.87 374.67 1298.07 375.391 1298.07 376.126V391.872C1298.07 392.606 1297.87 393.327 1297.5 393.96C1297.13 394.593 1296.59 395.115 1295.95 395.471L1281.53 403.482C1280.92 403.822 1280.23 404 1279.53 404C1278.83 404 1278.15 403.822 1277.53 403.482L1263.12 395.471C1262.48 395.115 1261.94 394.593 1261.57 393.961C1261.2 393.328 1261 392.608 1261 391.874V376.126C1261 375.391 1261.2 374.67 1261.57 374.037C1261.94 373.403 1262.48 372.881 1263.12 372.525L1277.53 364.518Z" fill="#3C4758"/>
<path d="M935.227 35.4144C935.717 35.1426 936.267 35 936.827 35C937.387 35 937.937 35.1426 938.427 35.4144L949.959 41.8196C950.473 42.105 950.901 42.5227 951.199 43.0294C951.497 43.536 951.654 44.1132 951.654 44.701V57.2973C951.654 57.8849 951.497 58.4617 951.199 58.9681C950.9 59.4744 950.472 59.8918 949.959 60.1771L938.427 66.5856C937.937 66.8574 937.387 67 936.827 67C936.267 67 935.717 66.8574 935.227 66.5856L923.695 60.1771C923.182 59.892 922.754 59.4748 922.456 58.9688C922.158 58.4628 922 57.8863 922 57.299V44.701C922 44.1132 922.157 43.536 922.455 43.0294C922.753 42.5227 923.181 42.105 923.695 41.8196L935.227 35.4144Z" fill="#2684FF"/>
<path d="M110.841 314.622C111.575 314.214 112.401 314 113.24 314C114.08 314 114.906 314.214 115.64 314.622L132.938 324.229C133.709 324.658 134.351 325.284 134.798 326.044C135.246 326.804 135.481 327.67 135.481 328.552V347.446C135.481 348.327 135.245 349.193 134.798 349.952C134.351 350.712 133.709 351.338 132.938 351.766L115.64 361.378C114.906 361.786 114.08 362 113.24 362C112.401 362 111.575 361.786 110.841 361.378L93.5428 351.766C92.7727 351.338 92.1309 350.712 91.6838 349.953C91.2367 349.194 91.0006 348.329 91 347.448V328.552C90.9998 327.67 91.2354 326.804 91.6826 326.044C92.1297 325.284 92.772 324.658 93.5428 324.229L110.841 314.622Z" fill="#510FAB"/>
<path d="M68.9205 465.311C69.2875 465.107 69.7004 465 70.1202 465C70.5401 465 70.953 465.107 71.32 465.311L79.9691 470.115C80.3545 470.329 80.6756 470.642 80.8992 471.022C81.1228 471.402 81.2406 471.835 81.2405 472.276V481.723C81.2404 482.164 81.1224 482.596 80.8989 482.976C80.6753 483.356 80.3543 483.669 79.9691 483.883L71.32 488.689C70.953 488.893 70.5401 489 70.1202 489C69.7004 489 69.2875 488.893 68.9205 488.689L60.2714 483.883C59.8864 483.669 59.5654 483.356 59.3419 482.977C59.1184 482.597 59.0003 482.165 59 481.724V472.276C58.9999 471.835 59.1177 471.402 59.3413 471.022C59.5648 470.642 59.886 470.329 60.2714 470.115L68.9205 465.311Z" fill="#37B47E"/>
<path d="M50.1478 121.725C51.0042 121.25 51.9676 121 52.9472 121C53.9268 121 54.8902 121.25 55.7466 121.725L75.9278 132.934C76.8271 133.434 77.5765 134.165 78.0981 135.051C78.6198 135.938 78.8947 136.948 78.8944 137.977V160.02C78.8942 161.049 78.619 162.058 78.0974 162.944C77.5758 163.83 76.8267 164.561 75.9278 165.06L55.7466 176.275C54.8902 176.75 53.9268 177 52.9472 177C51.9676 177 51.0042 176.75 50.1478 176.275L29.9666 165.06C29.0682 164.561 28.3194 163.831 27.7978 162.945C27.2762 162.06 27.0008 161.051 27 160.023V137.977C26.9997 136.948 27.2747 135.938 27.7963 135.051C28.318 134.165 29.0673 133.434 29.9666 132.934L50.1478 121.725Z" fill="#00B8D9"/>
<path d="M1209.92 207.311C1210.29 207.107 1210.7 207 1211.12 207C1211.54 207 1211.95 207.107 1212.32 207.311L1220.97 212.115C1221.35 212.329 1221.68 212.642 1221.9 213.022C1222.12 213.402 1222.24 213.835 1222.24 214.276V223.723C1222.24 224.164 1222.12 224.596 1221.9 224.976C1221.68 225.356 1221.35 225.669 1220.97 225.883L1212.32 230.689C1211.95 230.893 1211.54 231 1211.12 231C1210.7 231 1210.29 230.893 1209.92 230.689L1201.27 225.883C1200.89 225.669 1200.57 225.356 1200.34 224.977C1200.12 224.597 1200 224.165 1200 223.724V214.276C1200 213.835 1200.12 213.402 1200.34 213.022C1200.56 212.642 1200.89 212.329 1201.27 212.115L1209.92 207.311Z" fill="#FFAC00"/>
</svg>
