<svg width="112" height="36" viewBox="0 0 112 36" fill="none" xmlns="http://www.w3.org/2000/svg">
<path d="M36.2031 25.2C35.5365 25.2 34.9298 25.0667 34.3831 24.8C33.8365 24.5333 33.3965 24.1733 33.0631 23.72C32.7298 23.2667 32.5631 22.7533 32.5631 22.18C32.5631 21.26 32.9365 20.5267 33.6831 19.98C34.4298 19.4333 35.4031 19.0733 36.6031 18.9L39.5831 18.48V17.9C39.5831 17.26 39.3965 16.76 39.0231 16.4C38.6631 16.04 38.0698 15.86 37.2431 15.86C36.6431 15.86 36.1565 15.98 35.7831 16.22C35.4231 16.46 35.1698 16.7667 35.0231 17.14C34.9431 17.34 34.8031 17.44 34.6031 17.44H33.7031C33.5565 17.44 33.4431 17.4 33.3631 17.32C33.2965 17.2267 33.2631 17.12 33.2631 17C33.2631 16.8 33.3365 16.5533 33.4831 16.26C33.6431 15.9667 33.8831 15.68 34.2031 15.4C34.5231 15.12 34.9298 14.8867 35.4231 14.7C35.9298 14.5 36.5431 14.4 37.2631 14.4C38.0631 14.4 38.7365 14.5067 39.2831 14.72C39.8298 14.92 40.2565 15.1933 40.5631 15.54C40.8831 15.8867 41.1098 16.28 41.2431 16.72C41.3898 17.16 41.4631 17.6067 41.4631 18.06V24.54C41.4631 24.6733 41.4165 24.7867 41.3231 24.88C41.2431 24.96 41.1365 25 41.0031 25H40.0831C39.9365 25 39.8231 24.96 39.7431 24.88C39.6631 24.7867 39.6231 24.6733 39.6231 24.54V23.68C39.4498 23.92 39.2165 24.16 38.9231 24.4C38.6298 24.6267 38.2631 24.82 37.8231 24.98C37.3831 25.1267 36.8431 25.2 36.2031 25.2ZM36.6231 23.7C37.1698 23.7 37.6698 23.5867 38.1231 23.36C38.5765 23.12 38.9298 22.7533 39.1831 22.26C39.4498 21.7667 39.5831 21.1467 39.5831 20.4V19.84L37.2631 20.18C36.3165 20.3133 35.6031 20.54 35.1231 20.86C34.6431 21.1667 34.4031 21.56 34.4031 22.04C34.4031 22.4133 34.5098 22.7267 34.7231 22.98C34.9498 23.22 35.2298 23.4 35.5631 23.52C35.9098 23.64 36.2631 23.7 36.6231 23.7ZM44.8183 25C44.6849 25 44.5716 24.96 44.4783 24.88C44.3983 24.7867 44.3583 24.6733 44.3583 24.54V15.06C44.3583 14.9267 44.3983 14.82 44.4783 14.74C44.5716 14.6467 44.6849 14.6 44.8183 14.6H45.7583C45.8916 14.6 45.9983 14.6467 46.0783 14.74C46.1716 14.82 46.2183 14.9267 46.2183 15.06V15.94C46.5649 15.4867 46.9983 15.12 47.5183 14.84C48.0516 14.5467 48.7316 14.4 49.5583 14.4C50.4249 14.4 51.1583 14.5933 51.7583 14.98C52.3716 15.3533 52.8316 15.88 53.1383 16.56C53.4449 17.2267 53.5983 18.0067 53.5983 18.9V24.54C53.5983 24.6733 53.5583 24.7867 53.4783 24.88C53.3983 24.96 53.2916 25 53.1583 25H52.1583C52.0249 25 51.9116 24.96 51.8183 24.88C51.7383 24.7867 51.6983 24.6733 51.6983 24.54V19C51.6983 18.0667 51.4716 17.34 51.0183 16.82C50.5649 16.2867 49.8983 16.02 49.0183 16.02C48.1916 16.02 47.5249 16.2867 47.0183 16.82C46.5249 17.34 46.2783 18.0667 46.2783 19V24.54C46.2783 24.6733 46.2316 24.7867 46.1383 24.88C46.0583 24.96 45.9516 25 45.8183 25H44.8183ZM58.0147 28.8C57.908 28.8 57.8147 28.76 57.7347 28.68C57.6547 28.6 57.6147 28.5067 57.6147 28.4C57.6147 28.3467 57.6214 28.2933 57.6347 28.24C57.648 28.1867 57.6747 28.12 57.7147 28.04L59.2547 24.38L55.4347 15.36C55.368 15.2 55.3347 15.0867 55.3347 15.02C55.3347 14.9 55.3747 14.8 55.4547 14.72C55.5347 14.64 55.6347 14.6 55.7547 14.6H56.7347C56.868 14.6 56.9747 14.6333 57.0547 14.7C57.1347 14.7667 57.188 14.8467 57.2147 14.94L60.2547 22.22L63.3747 14.94C63.4147 14.8467 63.468 14.7667 63.5347 14.7C63.6147 14.6333 63.728 14.6 63.8747 14.6H64.8147C64.9347 14.6 65.0347 14.64 65.1147 14.72C65.1947 14.8 65.2347 14.8933 65.2347 15C65.2347 15.0667 65.2014 15.1867 65.1347 15.36L59.4547 28.46C59.4147 28.5533 59.3547 28.6333 59.2747 28.7C59.208 28.7667 59.1014 28.8 58.9547 28.8H58.0147ZM71.0787 25.2C70.1321 25.2 69.3121 25.02 68.6187 24.66C67.9387 24.2867 67.4121 23.76 67.0387 23.08C66.6654 22.3867 66.4654 21.56 66.4387 20.6C66.4254 20.4 66.4187 20.1333 66.4187 19.8C66.4187 19.4667 66.4254 19.2 66.4387 19C66.4654 18.04 66.6654 17.22 67.0387 16.54C67.4121 15.8467 67.9387 15.32 68.6187 14.96C69.3121 14.5867 70.1321 14.4 71.0787 14.4C71.8521 14.4 72.5121 14.5067 73.0587 14.72C73.6187 14.9333 74.0787 15.2067 74.4387 15.54C74.7987 15.8733 75.0654 16.2333 75.2387 16.62C75.4254 17.0067 75.5254 17.3733 75.5387 17.72C75.5521 17.8533 75.5121 17.96 75.4187 18.04C75.3254 18.12 75.2121 18.16 75.0787 18.16H74.1187C73.9854 18.16 73.8854 18.1333 73.8187 18.08C73.7521 18.0133 73.6854 17.9067 73.6187 17.76C73.3787 17.1067 73.0521 16.6467 72.6387 16.38C72.2254 16.1133 71.7121 15.98 71.0987 15.98C70.2987 15.98 69.6454 16.2267 69.1387 16.72C68.6454 17.2133 68.3787 18.0067 68.3387 19.1C68.3254 19.58 68.3254 20.0467 68.3387 20.5C68.3787 21.6067 68.6454 22.4067 69.1387 22.9C69.6454 23.38 70.2987 23.62 71.0987 23.62C71.7121 23.62 72.2254 23.4867 72.6387 23.22C73.0521 22.9533 73.3787 22.4933 73.6187 21.84C73.6854 21.6933 73.7521 21.5933 73.8187 21.54C73.8854 21.4733 73.9854 21.44 74.1187 21.44H75.0787C75.2121 21.44 75.3254 21.48 75.4187 21.56C75.5121 21.64 75.5521 21.7467 75.5387 21.88C75.5254 22.16 75.4654 22.4467 75.3587 22.74C75.2521 23.0333 75.0787 23.3333 74.8387 23.64C74.6121 23.9333 74.3254 24.2 73.9787 24.44C73.6321 24.6667 73.2121 24.8533 72.7187 25C72.2387 25.1333 71.6921 25.2 71.0787 25.2ZM82.1939 25.2C81.1806 25.2 80.3339 25.0067 79.6539 24.62C78.9739 24.2333 78.4539 23.7 78.0939 23.02C77.7339 22.3267 77.5339 21.54 77.4939 20.66C77.4806 20.4333 77.4739 20.1467 77.4739 19.8C77.4739 19.44 77.4806 19.1533 77.4939 18.94C77.5339 18.0467 77.7339 17.26 78.0939 16.58C78.4672 15.9 78.9939 15.3667 79.6739 14.98C80.3539 14.5933 81.1939 14.4 82.1939 14.4C83.1939 14.4 84.0339 14.5933 84.7139 14.98C85.3939 15.3667 85.9139 15.9 86.2739 16.58C86.6472 17.26 86.8539 18.0467 86.8939 18.94C86.9072 19.1533 86.9139 19.44 86.9139 19.8C86.9139 20.1467 86.9072 20.4333 86.8939 20.66C86.8539 21.54 86.6539 22.3267 86.2939 23.02C85.9339 23.7 85.4139 24.2333 84.7339 24.62C84.0539 25.0067 83.2072 25.2 82.1939 25.2ZM82.1939 23.66C83.0206 23.66 83.6806 23.4 84.1739 22.88C84.6672 22.3467 84.9339 21.5733 84.9739 20.56C84.9872 20.36 84.9939 20.1067 84.9939 19.8C84.9939 19.4933 84.9872 19.24 84.9739 19.04C84.9339 18.0267 84.6672 17.26 84.1739 16.74C83.6806 16.2067 83.0206 15.94 82.1939 15.94C81.3672 15.94 80.7006 16.2067 80.1939 16.74C79.7006 17.26 79.4406 18.0267 79.4139 19.04C79.4006 19.24 79.3939 19.4933 79.3939 19.8C79.3939 20.1067 79.4006 20.36 79.4139 20.56C79.4406 21.5733 79.7006 22.3467 80.1939 22.88C80.7006 23.4 81.3672 23.66 82.1939 23.66ZM93.2383 25.2C92.5049 25.2 91.8716 25.0733 91.3383 24.82C90.8049 24.5533 90.3649 24.2 90.0183 23.76C89.6849 23.3067 89.4316 22.7933 89.2583 22.22C89.0983 21.6467 89.0049 21.04 88.9783 20.4C88.9649 20.1867 88.9583 19.9867 88.9583 19.8C88.9583 19.6133 88.9649 19.4133 88.9783 19.2C89.0049 18.5733 89.0983 17.9733 89.2583 17.4C89.4316 16.8267 89.6849 16.3133 90.0183 15.86C90.3649 15.4067 90.8049 15.0533 91.3383 14.8C91.8716 14.5333 92.5049 14.4 93.2383 14.4C94.0249 14.4 94.6783 14.54 95.1983 14.82C95.7183 15.1 96.1449 15.4467 96.4783 15.86V11.26C96.4783 11.1267 96.5183 11.02 96.5983 10.94C96.6916 10.8467 96.8049 10.8 96.9383 10.8H97.8983C98.0316 10.8 98.1383 10.8467 98.2183 10.94C98.3116 11.02 98.3583 11.1267 98.3583 11.26V24.54C98.3583 24.6733 98.3116 24.7867 98.2183 24.88C98.1383 24.96 98.0316 25 97.8983 25H96.9983C96.8516 25 96.7383 24.96 96.6583 24.88C96.5783 24.7867 96.5383 24.6733 96.5383 24.54V23.7C96.2049 24.1267 95.7716 24.4867 95.2383 24.78C94.7049 25.06 94.0383 25.2 93.2383 25.2ZM93.6583 23.58C94.3249 23.58 94.8583 23.4267 95.2583 23.12C95.6583 22.8133 95.9583 22.4267 96.1583 21.96C96.3583 21.48 96.4649 20.9933 96.4783 20.5C96.4916 20.2867 96.4983 20.0333 96.4983 19.74C96.4983 19.4333 96.4916 19.1733 96.4783 18.96C96.4649 18.4933 96.3516 18.0333 96.1383 17.58C95.9383 17.1267 95.6316 16.7533 95.2183 16.46C94.8183 16.1667 94.2983 16.02 93.6583 16.02C92.9783 16.02 92.4383 16.1733 92.0383 16.48C91.6383 16.7733 91.3516 17.1667 91.1783 17.66C91.0049 18.14 90.9049 18.66 90.8783 19.22C90.8649 19.6067 90.8649 19.9933 90.8783 20.38C90.9049 20.94 91.0049 21.4667 91.1783 21.96C91.3516 22.44 91.6383 22.8333 92.0383 23.14C92.4383 23.4333 92.9783 23.58 93.6583 23.58ZM105.493 25.2C104.119 25.2 103.026 24.78 102.213 23.94C101.399 23.0867 100.953 21.9267 100.873 20.46C100.859 20.2867 100.853 20.0667 100.853 19.8C100.853 19.52 100.859 19.2933 100.873 19.12C100.926 18.1733 101.146 17.3467 101.533 16.64C101.919 15.92 102.446 15.3667 103.113 14.98C103.793 14.5933 104.586 14.4 105.493 14.4C106.506 14.4 107.353 14.6133 108.033 15.04C108.726 15.4667 109.253 16.0733 109.613 16.86C109.973 17.6467 110.153 18.5667 110.153 19.62V19.96C110.153 20.1067 110.106 20.22 110.013 20.3C109.933 20.38 109.826 20.42 109.693 20.42H102.773C102.773 20.4333 102.773 20.46 102.773 20.5C102.773 20.54 102.773 20.5733 102.773 20.6C102.799 21.1467 102.919 21.66 103.133 22.14C103.346 22.6067 103.653 22.9867 104.053 23.28C104.453 23.5733 104.933 23.72 105.493 23.72C105.973 23.72 106.373 23.6467 106.693 23.5C107.013 23.3533 107.273 23.1933 107.473 23.02C107.673 22.8333 107.806 22.6933 107.873 22.6C107.993 22.4267 108.086 22.3267 108.153 22.3C108.219 22.26 108.326 22.24 108.473 22.24H109.433C109.566 22.24 109.673 22.28 109.753 22.36C109.846 22.4267 109.886 22.5267 109.873 22.66C109.859 22.86 109.753 23.1067 109.553 23.4C109.353 23.68 109.066 23.96 108.693 24.24C108.319 24.52 107.866 24.7533 107.333 24.94C106.799 25.1133 106.186 25.2 105.493 25.2ZM102.773 19.04H108.253V18.98C108.253 18.38 108.139 17.8467 107.913 17.38C107.699 16.9133 107.386 16.5467 106.973 16.28C106.559 16 106.066 15.86 105.493 15.86C104.919 15.86 104.426 16 104.013 16.28C103.613 16.5467 103.306 16.9133 103.093 17.38C102.879 17.8467 102.773 18.38 102.773 18.98V19.04Z" fill="#F9FBFC"/>
<path d="M10.9771 5.33537C11.3462 5.11542 11.7615 5 12.1837 5C12.6059 5 13.0211 5.11542 13.3903 5.33537L22.0887 10.5194C22.4763 10.7503 22.7993 11.0884 23.0241 11.4984C23.249 11.9085 23.3675 12.3756 23.3673 12.8514V23.046C23.3672 23.5216 23.2486 23.9884 23.0238 24.3982C22.799 24.808 22.4761 25.1458 22.0887 25.3767L13.3903 30.5634C13.0211 30.7833 12.6059 30.8987 12.1837 30.8987C11.7615 30.8987 11.3462 30.7833 10.9771 30.5634L2.27867 25.3767C1.89141 25.1459 1.56867 24.8083 1.34385 24.3988C1.11904 23.9892 1.00033 23.5227 1 23.0474V12.8514C0.999883 12.3756 1.11839 11.9085 1.34322 11.4984C1.56806 11.0884 1.89104 10.7503 2.27867 10.5194L10.9771 5.33537V5.33537Z" stroke="#F9FBFC" stroke-width="2"/>
<path d="M9.39227 21.2394C9.23268 21.2396 9.07857 21.1769 8.95931 21.063L5.65991 17.916L9.14254 14.5941C9.27235 14.4749 9.44056 14.4152 9.61099 14.4277C9.78142 14.4403 9.94046 14.524 10.0539 14.6611C10.1674 14.7981 10.2262 14.9775 10.2177 15.1605C10.2092 15.3436 10.134 15.5158 10.0085 15.6401L7.6226 17.916L9.82524 20.0164C9.9242 20.1106 9.9941 20.2349 10.0257 20.3727C10.0573 20.5106 10.049 20.6555 10.002 20.7882C9.95505 20.9209 9.87156 21.0351 9.76266 21.1157C9.65375 21.1963 9.52457 21.2394 9.39227 21.2394ZM15.2249 21.238L18.7075 17.916L15.4081 14.769C15.2789 14.6458 15.1093 14.5827 14.9367 14.5937C14.7641 14.6046 14.6026 14.6887 14.4878 14.8274C14.3729 14.9661 14.3142 15.1481 14.3244 15.3333C14.3346 15.5185 14.4129 15.6918 14.5422 15.815L16.7448 17.916L14.359 20.1913C14.2296 20.3145 14.1512 20.4878 14.1409 20.6731C14.1306 20.8583 14.1894 21.0404 14.3042 21.1792C14.419 21.318 14.5805 21.4022 14.7532 21.4132C14.9259 21.4242 15.0956 21.3612 15.2249 21.238ZM12.1746 22.2294L13.4787 13.8336C13.4954 13.7418 13.4947 13.6474 13.4768 13.5559C13.4589 13.4644 13.4241 13.3777 13.3745 13.3009C13.3248 13.2241 13.2613 13.1587 13.1877 13.1087C13.1141 13.0586 13.0319 13.0249 12.946 13.0095C12.8601 12.9942 12.7721 12.9974 12.6874 13.0191C12.6026 13.0408 12.5228 13.0805 12.4526 13.1359C12.3824 13.1912 12.3232 13.2611 12.2786 13.3414C12.234 13.4217 12.2048 13.5108 12.1929 13.6034L10.8887 21.9992C10.8721 22.0909 10.8727 22.1854 10.8906 22.2768C10.9085 22.3683 10.9433 22.455 10.993 22.5319C11.0426 22.6087 11.1061 22.674 11.1797 22.7241C11.2533 22.7741 11.3355 22.8078 11.4214 22.8232C11.5074 22.8386 11.5953 22.8353 11.6801 22.8136C11.7648 22.7919 11.8446 22.7522 11.9149 22.6969C11.9851 22.6415 12.0442 22.5716 12.0888 22.4913C12.1334 22.411 12.1626 22.322 12.1746 22.2294Z" fill="#F9FBFC"/>
</svg>
