<svg width="117" height="36" viewBox="0 0 117 36" fill="none" xmlns="http://www.w3.org/2000/svg">
<path d="M36.2031 25.2C35.5365 25.2 34.9298 25.0667 34.3831 24.8C33.8365 24.5333 33.3965 24.1733 33.0631 23.72C32.7298 23.2667 32.5631 22.7533 32.5631 22.18C32.5631 21.26 32.9365 20.5267 33.6831 19.98C34.4298 19.4333 35.4031 19.0733 36.6031 18.9L39.5831 18.48V17.9C39.5831 17.26 39.3965 16.76 39.0231 16.4C38.6631 16.04 38.0698 15.86 37.2431 15.86C36.6431 15.86 36.1565 15.98 35.7831 16.22C35.4231 16.46 35.1698 16.7667 35.0231 17.14C34.9431 17.34 34.8031 17.44 34.6031 17.44H33.7031C33.5565 17.44 33.4431 17.4 33.3631 17.32C33.2965 17.2267 33.2631 17.12 33.2631 17C33.2631 16.8 33.3365 16.5533 33.4831 16.26C33.6431 15.9667 33.8831 15.68 34.2031 15.4C34.5231 15.12 34.9298 14.8867 35.4231 14.7C35.9298 14.5 36.5431 14.4 37.2631 14.4C38.0631 14.4 38.7365 14.5067 39.2831 14.72C39.8298 14.92 40.2565 15.1933 40.5631 15.54C40.8831 15.8867 41.1098 16.28 41.2431 16.72C41.3898 17.16 41.4631 17.6067 41.4631 18.06V24.54C41.4631 24.6733 41.4165 24.7867 41.3231 24.88C41.2431 24.96 41.1365 25 41.0031 25H40.0831C39.9365 25 39.8231 24.96 39.7431 24.88C39.6631 24.7867 39.6231 24.6733 39.6231 24.54V23.68C39.4498 23.92 39.2165 24.16 38.9231 24.4C38.6298 24.6267 38.2631 24.82 37.8231 24.98C37.3831 25.1267 36.8431 25.2 36.2031 25.2ZM36.6231 23.7C37.1698 23.7 37.6698 23.5867 38.1231 23.36C38.5765 23.12 38.9298 22.7533 39.1831 22.26C39.4498 21.7667 39.5831 21.1467 39.5831 20.4V19.84L37.2631 20.18C36.3165 20.3133 35.6031 20.54 35.1231 20.86C34.6431 21.1667 34.4031 21.56 34.4031 22.04C34.4031 22.4133 34.5098 22.7267 34.7231 22.98C34.9498 23.22 35.2298 23.4 35.5631 23.52C35.9098 23.64 36.2631 23.7 36.6231 23.7ZM44.8183 25C44.6849 25 44.5716 24.96 44.4783 24.88C44.3983 24.7867 44.3583 24.6733 44.3583 24.54V15.06C44.3583 14.9267 44.3983 14.82 44.4783 14.74C44.5716 14.6467 44.6849 14.6 44.8183 14.6H45.7583C45.8916 14.6 45.9983 14.6467 46.0783 14.74C46.1716 14.82 46.2183 14.9267 46.2183 15.06V15.94C46.5649 15.4867 46.9983 15.12 47.5183 14.84C48.0516 14.5467 48.7316 14.4 49.5583 14.4C50.4249 14.4 51.1583 14.5933 51.7583 14.98C52.3716 15.3533 52.8316 15.88 53.1383 16.56C53.4449 17.2267 53.5983 18.0067 53.5983 18.9V24.54C53.5983 24.6733 53.5583 24.7867 53.4783 24.88C53.3983 24.96 53.2916 25 53.1583 25H52.1583C52.0249 25 51.9116 24.96 51.8183 24.88C51.7383 24.7867 51.6983 24.6733 51.6983 24.54V19C51.6983 18.0667 51.4716 17.34 51.0183 16.82C50.5649 16.2867 49.8983 16.02 49.0183 16.02C48.1916 16.02 47.5249 16.2867 47.0183 16.82C46.5249 17.34 46.2783 18.0667 46.2783 19V24.54C46.2783 24.6733 46.2316 24.7867 46.1383 24.88C46.0583 24.96 45.9516 25 45.8183 25H44.8183ZM58.0147 28.8C57.908 28.8 57.8147 28.76 57.7347 28.68C57.6547 28.6 57.6147 28.5067 57.6147 28.4C57.6147 28.3467 57.6214 28.2933 57.6347 28.24C57.648 28.1867 57.6747 28.12 57.7147 28.04L59.2547 24.38L55.4347 15.36C55.368 15.2 55.3347 15.0867 55.3347 15.02C55.3347 14.9 55.3747 14.8 55.4547 14.72C55.5347 14.64 55.6347 14.6 55.7547 14.6H56.7347C56.868 14.6 56.9747 14.6333 57.0547 14.7C57.1347 14.7667 57.188 14.8467 57.2147 14.94L60.2547 22.22L63.3747 14.94C63.4147 14.8467 63.468 14.7667 63.5347 14.7C63.6147 14.6333 63.728 14.6 63.8747 14.6H64.8147C64.9347 14.6 65.0347 14.64 65.1147 14.72C65.1947 14.8 65.2347 14.8933 65.2347 15C65.2347 15.0667 65.2014 15.1867 65.1347 15.36L59.4547 28.46C59.4147 28.5533 59.3547 28.6333 59.2747 28.7C59.208 28.7667 59.1014 28.8 58.9547 28.8H58.0147ZM70.5178 25.2C69.7711 25.2 69.1311 25.1067 68.5978 24.92C68.0645 24.7333 67.6311 24.5067 67.2978 24.24C66.9645 23.9733 66.7111 23.7067 66.5378 23.44C66.3778 23.1733 66.2911 22.96 66.2778 22.8C66.2645 22.6533 66.3111 22.54 66.4178 22.46C66.5245 22.38 66.6311 22.34 66.7378 22.34H67.6178C67.6978 22.34 67.7578 22.3533 67.7978 22.38C67.8511 22.3933 67.9178 22.4467 67.9978 22.54C68.1711 22.7267 68.3645 22.9133 68.5778 23.1C68.7911 23.2867 69.0511 23.44 69.3578 23.56C69.6778 23.68 70.0711 23.74 70.5378 23.74C71.2178 23.74 71.7778 23.6133 72.2178 23.36C72.6578 23.0933 72.8778 22.7067 72.8778 22.2C72.8778 21.8667 72.7845 21.6 72.5978 21.4C72.4245 21.2 72.1045 21.02 71.6378 20.86C71.1845 20.7 70.5578 20.5333 69.7578 20.36C68.9578 20.1733 68.3245 19.9467 67.8578 19.68C67.3911 19.4 67.0578 19.0733 66.8578 18.7C66.6578 18.3133 66.5578 17.88 66.5578 17.4C66.5578 16.9067 66.7045 16.4333 66.9978 15.98C67.2911 15.5133 67.7178 15.1333 68.2778 14.84C68.8511 14.5467 69.5645 14.4 70.4178 14.4C71.1111 14.4 71.7045 14.4867 72.1978 14.66C72.6911 14.8333 73.0978 15.0533 73.4178 15.32C73.7378 15.5733 73.9778 15.8267 74.1378 16.08C74.2978 16.3333 74.3845 16.5467 74.3978 16.72C74.4111 16.8533 74.3711 16.9667 74.2778 17.06C74.1845 17.14 74.0778 17.18 73.9578 17.18H73.1178C73.0245 17.18 72.9445 17.16 72.8778 17.12C72.8245 17.08 72.7711 17.0333 72.7178 16.98C72.5845 16.8067 72.4245 16.6333 72.2378 16.46C72.0645 16.2867 71.8311 16.1467 71.5378 16.04C71.2578 15.92 70.8845 15.86 70.4178 15.86C69.7511 15.86 69.2511 16 68.9178 16.28C68.5845 16.56 68.4178 16.9133 68.4178 17.34C68.4178 17.5933 68.4911 17.82 68.6378 18.02C68.7845 18.22 69.0645 18.4 69.4778 18.56C69.8911 18.72 70.5045 18.8933 71.3178 19.08C72.1978 19.2533 72.8911 19.4867 73.3978 19.78C73.9045 20.0733 74.2645 20.4133 74.4778 20.8C74.6911 21.1867 74.7978 21.6333 74.7978 22.14C74.7978 22.7 74.6311 23.2133 74.2978 23.68C73.9778 24.1467 73.4978 24.52 72.8578 24.8C72.2311 25.0667 71.4511 25.2 70.5178 25.2ZM77.6131 25C77.4798 25 77.3665 24.96 77.2731 24.88C77.1931 24.7867 77.1531 24.6733 77.1531 24.54V11.26C77.1531 11.1267 77.1931 11.02 77.2731 10.94C77.3665 10.8467 77.4798 10.8 77.6131 10.8H78.6131C78.7598 10.8 78.8731 10.8467 78.9531 10.94C79.0331 11.02 79.0731 11.1267 79.0731 11.26V15.92C79.4331 15.4667 79.8731 15.1 80.3931 14.82C80.9131 14.54 81.5731 14.4 82.3731 14.4C83.2398 14.4 83.9731 14.5933 84.5731 14.98C85.1865 15.3533 85.6465 15.88 85.9531 16.56C86.2731 17.2267 86.4331 18.0067 86.4331 18.9V24.54C86.4331 24.6733 86.3931 24.7867 86.3131 24.88C86.2331 24.96 86.1198 25 85.9731 25H84.9731C84.8398 25 84.7265 24.96 84.6331 24.88C84.5531 24.7867 84.5131 24.6733 84.5131 24.54V19C84.5131 18.0667 84.2865 17.34 83.8331 16.82C83.3798 16.2867 82.7131 16.02 81.8331 16.02C81.0065 16.02 80.3398 16.2867 79.8331 16.82C79.3265 17.34 79.0731 18.0667 79.0731 19V24.54C79.0731 24.6733 79.0331 24.7867 78.9531 24.88C78.8731 24.96 78.7598 25 78.6131 25H77.6131ZM92.2406 25.2C91.574 25.2 90.9673 25.0667 90.4206 24.8C89.874 24.5333 89.434 24.1733 89.1006 23.72C88.7673 23.2667 88.6006 22.7533 88.6006 22.18C88.6006 21.26 88.974 20.5267 89.7206 19.98C90.4673 19.4333 91.4406 19.0733 92.6406 18.9L95.6206 18.48V17.9C95.6206 17.26 95.434 16.76 95.0606 16.4C94.7006 16.04 94.1073 15.86 93.2806 15.86C92.6806 15.86 92.194 15.98 91.8206 16.22C91.4606 16.46 91.2073 16.7667 91.0606 17.14C90.9806 17.34 90.8406 17.44 90.6406 17.44H89.7406C89.594 17.44 89.4806 17.4 89.4006 17.32C89.334 17.2267 89.3006 17.12 89.3006 17C89.3006 16.8 89.374 16.5533 89.5206 16.26C89.6806 15.9667 89.9206 15.68 90.2406 15.4C90.5606 15.12 90.9673 14.8867 91.4606 14.7C91.9673 14.5 92.5806 14.4 93.3006 14.4C94.1006 14.4 94.774 14.5067 95.3206 14.72C95.8673 14.92 96.294 15.1933 96.6006 15.54C96.9206 15.8867 97.1473 16.28 97.2806 16.72C97.4273 17.16 97.5006 17.6067 97.5006 18.06V24.54C97.5006 24.6733 97.454 24.7867 97.3606 24.88C97.2806 24.96 97.174 25 97.0406 25H96.1206C95.974 25 95.8606 24.96 95.7806 24.88C95.7006 24.7867 95.6606 24.6733 95.6606 24.54V23.68C95.4873 23.92 95.254 24.16 94.9606 24.4C94.6673 24.6267 94.3006 24.82 93.8606 24.98C93.4206 25.1267 92.8806 25.2 92.2406 25.2ZM92.6606 23.7C93.2073 23.7 93.7073 23.5867 94.1606 23.36C94.614 23.12 94.9673 22.7533 95.2206 22.26C95.4873 21.7667 95.6206 21.1467 95.6206 20.4V19.84L93.3006 20.18C92.354 20.3133 91.6406 20.54 91.1606 20.86C90.6806 21.1667 90.4406 21.56 90.4406 22.04C90.4406 22.4133 90.5473 22.7267 90.7606 22.98C90.9873 23.22 91.2673 23.4 91.6006 23.52C91.9473 23.64 92.3006 23.7 92.6606 23.7ZM100.856 25C100.722 25 100.609 24.96 100.516 24.88C100.436 24.7867 100.396 24.6733 100.396 24.54V15.08C100.396 14.9467 100.436 14.8333 100.516 14.74C100.609 14.6467 100.722 14.6 100.856 14.6H101.776C101.909 14.6 102.022 14.6467 102.116 14.74C102.209 14.8333 102.256 14.9467 102.256 15.08V15.96C102.522 15.5067 102.889 15.1667 103.356 14.94C103.822 14.7133 104.382 14.6 105.036 14.6H105.836C105.969 14.6 106.076 14.6467 106.156 14.74C106.236 14.82 106.276 14.9267 106.276 15.06V15.88C106.276 16.0133 106.236 16.12 106.156 16.2C106.076 16.28 105.969 16.32 105.836 16.32H104.636C103.916 16.32 103.349 16.5333 102.936 16.96C102.522 17.3733 102.316 17.94 102.316 18.66V24.54C102.316 24.6733 102.269 24.7867 102.176 24.88C102.082 24.96 101.969 25 101.836 25H100.856ZM111.958 25.2C110.585 25.2 109.491 24.78 108.678 23.94C107.865 23.0867 107.418 21.9267 107.338 20.46C107.325 20.2867 107.318 20.0667 107.318 19.8C107.318 19.52 107.325 19.2933 107.338 19.12C107.391 18.1733 107.611 17.3467 107.998 16.64C108.385 15.92 108.911 15.3667 109.578 14.98C110.258 14.5933 111.051 14.4 111.958 14.4C112.971 14.4 113.818 14.6133 114.498 15.04C115.191 15.4667 115.718 16.0733 116.078 16.86C116.438 17.6467 116.618 18.5667 116.618 19.62V19.96C116.618 20.1067 116.571 20.22 116.478 20.3C116.398 20.38 116.291 20.42 116.158 20.42H109.238C109.238 20.4333 109.238 20.46 109.238 20.5C109.238 20.54 109.238 20.5733 109.238 20.6C109.265 21.1467 109.385 21.66 109.598 22.14C109.811 22.6067 110.118 22.9867 110.518 23.28C110.918 23.5733 111.398 23.72 111.958 23.72C112.438 23.72 112.838 23.6467 113.158 23.5C113.478 23.3533 113.738 23.1933 113.938 23.02C114.138 22.8333 114.271 22.6933 114.338 22.6C114.458 22.4267 114.551 22.3267 114.618 22.3C114.685 22.26 114.791 22.24 114.938 22.24H115.898C116.031 22.24 116.138 22.28 116.218 22.36C116.311 22.4267 116.351 22.5267 116.338 22.66C116.325 22.86 116.218 23.1067 116.018 23.4C115.818 23.68 115.531 23.96 115.158 24.24C114.785 24.52 114.331 24.7533 113.798 24.94C113.265 25.1133 112.651 25.2 111.958 25.2ZM109.238 19.04H114.718V18.98C114.718 18.38 114.605 17.8467 114.378 17.38C114.165 16.9133 113.851 16.5467 113.438 16.28C113.025 16 112.531 15.86 111.958 15.86C111.385 15.86 110.891 16 110.478 16.28C110.078 16.5467 109.771 16.9133 109.558 17.38C109.345 17.8467 109.238 18.38 109.238 18.98V19.04Z" fill="#F9FBFC"/>
<path d="M10.9771 6.33537C11.3462 6.11542 11.7615 6 12.1837 6C12.6059 6 13.0211 6.11542 13.3903 6.33537L22.0887 11.5194C22.4763 11.7503 22.7993 12.0884 23.0241 12.4984C23.249 12.9085 23.3675 13.3756 23.3673 13.8514V24.046C23.3672 24.5216 23.2486 24.9884 23.0238 25.3982C22.799 25.808 22.4761 26.1458 22.0887 26.3767L13.3903 31.5634C13.0211 31.7833 12.6059 31.8987 12.1837 31.8987C11.7615 31.8987 11.3462 31.7833 10.9771 31.5634L2.27867 26.3767C1.89141 26.1459 1.56867 25.8083 1.34385 25.3988C1.11904 24.9892 1.00033 24.5227 1 24.0474V13.8514C0.999883 13.3756 1.11839 12.9085 1.34322 12.4984C1.56806 12.0884 1.89104 11.7503 2.27867 11.5194L10.9771 6.33537V6.33537Z" stroke="white" stroke-width="2"/>
<path d="M5.54686 23C5.4893 23.0003 5.43208 22.9915 5.37754 22.974C5.26346 22.9387 5.16475 22.8687 5.09664 22.7748C5.02852 22.6808 4.99479 22.5681 5.00065 22.4541C5.00065 22.3761 5.56325 14.827 13.516 14.2343V11.5204C13.5159 11.417 13.5482 11.316 13.6087 11.2301C13.6693 11.1443 13.7553 11.0776 13.8558 11.0386C13.9564 10.9995 14.0669 10.9898 14.1732 11.0108C14.2795 11.0318 14.3769 11.0825 14.4528 11.1564L19.8439 16.3971C19.9439 16.4943 20 16.625 20 16.7611C20 16.8972 19.9439 17.0278 19.8439 17.125L14.4528 22.3657C14.3769 22.4396 14.2795 22.4903 14.1732 22.5113C14.0669 22.5323 13.9564 22.5226 13.8558 22.4836C13.7553 22.4445 13.6693 22.3778 13.6087 22.292C13.5482 22.2062 13.5159 22.1051 13.516 22.0018V19.3398C8.2069 19.5322 6.03026 22.7192 6.00841 22.7582C5.95913 22.8323 5.89097 22.8933 5.81028 22.9356C5.72958 22.9778 5.63897 23 5.54686 23V23ZM14.6085 12.7941V14.7204C14.6085 14.8552 14.5536 14.9848 14.4553 15.0818C14.357 15.1788 14.2229 15.2356 14.0814 15.2403C8.93608 15.4197 7.09536 18.6821 6.43445 20.78C7.79997 19.657 10.2333 18.2844 14.0295 18.2844H14.0541C14.1989 18.2844 14.3378 18.3392 14.4403 18.4367C14.5427 18.5342 14.6003 18.6664 14.6003 18.8043V20.7306L18.6968 16.7637L14.6085 12.7941Z" fill="white"/>
</svg>
